<?xml version="1.0" standalone="no"?>
<!DOCTYPE svg PUBLIC "-//W3C//DTD SVG 20010904//EN"
 "http://www.w3.org/TR/2001/REC-SVG-20010904/DTD/svg10.dtd">
<svg version="1.0" xmlns="http://www.w3.org/2000/svg"
 width="448.000000pt" height="477.000000pt" viewBox="0 0 448.000000 477.000000"
 preserveAspectRatio="xMidYMid meet">

<g transform="translate(0.000000,477.000000) scale(0.100000,-0.100000)"
fill="#FFFFFF" stroke="none">
<path d="M2956 4030 c-34 -11 -82 -54 -102 -92 -18 -35 -18 -111 1 -147 17
-34 70 -81 91 -81 12 0 14 -41 14 -254 0 -264 -4 -292 -43 -335 -49 -53 -85
-61 -299 -61 l-198 0 0 -40 0 -40 206 0 c235 0 265 6 330 63 87 76 89 85 92
389 l3 267 40 23 c141 79 95 292 -66 312 -22 3 -53 1 -69 -4z m109 -105 c52
-51 14 -139 -59 -139 -44 0 -73 25 -82 71 -5 27 -1 37 24 63 39 38 83 40 117
5z"/>
<path d="M1880 3947 c-55 -36 -73 -78 -78 -176 -3 -69 -8 -90 -25 -108 -11
-13 -25 -23 -30 -23 -5 0 -40 -14 -79 -31 -46 -20 -78 -29 -94 -25 -14 4 -51
31 -84 61 -72 66 -121 84 -182 66 -34 -10 -72 -41 -177 -145 -136 -134 -161
-169 -161 -230 0 -54 16 -85 77 -149 52 -54 55 -60 50 -100 -5 -52 -48 -152
-76 -180 -17 -18 -37 -22 -114 -27 -82 -4 -98 -8 -129 -32 -61 -47 -70 -87
-66 -299 3 -162 5 -188 23 -218 36 -61 66 -75 171 -81 78 -5 98 -9 115 -27 30
-29 88 -178 81 -205 -3 -13 -28 -48 -55 -78 -76 -83 -93 -143 -63 -213 7 -18
76 -93 152 -169 114 -112 146 -138 177 -143 65 -12 104 2 168 61 64 58 98 77
126 68 62 -20 151 -60 169 -76 17 -16 22 -34 26 -103 11 -168 81 -225 263
-213 l50 3 3 43 3 42 -89 0 c-125 0 -134 8 -142 131 -7 102 -13 120 -57 161
-39 37 -193 98 -246 98 -49 0 -110 -34 -166 -94 -27 -28 -43 -36 -70 -36 -31
0 -48 13 -163 127 -119 118 -128 130 -128 164 0 32 8 46 51 91 91 94 98 141
43 275 -35 86 -68 133 -109 156 -11 6 -62 14 -114 17 -134 9 -131 4 -131 230
0 98 3 186 6 195 11 28 60 45 129 45 118 0 162 35 219 173 53 129 47 180 -33
262 -57 57 -75 94 -62 128 5 12 65 77 133 145 152 149 157 150 248 67 34 -31
72 -60 86 -65 48 -19 106 -11 194 26 138 59 170 102 170 231 0 65 3 77 25 98
22 23 32 25 115 25 l90 0 0 40 0 40 -104 0 c-90 0 -107 -3 -136 -23z"/>
<path d="M2594 3611 c-39 -18 -94 -75 -94 -98 0 -6 -32 -12 -74 -15 -56 -2
-82 -9 -102 -24 -67 -50 -83 -98 -84 -260 0 -145 -3 -148 -154 -152 l-116 -4
0 -39 0 -39 120 0 c137 0 162 8 207 67 27 35 28 42 33 179 6 176 11 184 105
184 60 0 63 -1 75 -31 21 -49 73 -82 138 -87 192 -12 253 240 77 319 -51 23
-79 23 -131 0z m120 -92 c28 -22 36 -73 16 -109 -14 -27 -64 -41 -100 -28 -36
12 -50 35 -50 82 0 41 37 76 80 76 15 0 39 -9 54 -21z"/>
<path d="M3431 3428 c-59 -40 -76 -72 -77 -146 l-2 -67 -193 -157 c-236 -192
-265 -208 -370 -208 l-77 0 -5 -37 c-2 -21 -2 -42 1 -47 10 -18 180 2 235 27
28 13 145 99 260 190 l207 166 46 -20 c110 -49 228 32 228 156 0 94 -61 157
-158 163 -51 3 -66 0 -95 -20z m138 -84 c83 -70 -16 -191 -102 -124 -48 38
-41 110 13 137 37 19 55 16 89 -13z"/>
<path d="M2032 3220 c-249 -36 -460 -215 -539 -454 -36 -113 -38 -276 -5 -386
36 -115 85 -195 176 -285 115 -114 231 -168 404 -190 l52 -7 0 46 c0 44 -1 46
-30 46 -44 0 -129 20 -185 43 -377 157 -477 644 -190 932 100 101 212 156 348
171 l57 7 0 43 c0 49 4 47 -88 34z"/>
<path d="M1700 2805 l0 -45 40 0 40 0 0 45 0 45 -40 0 -40 0 0 -45z"/>
<path d="M1870 2805 l0 -45 325 0 325 0 0 45 0 45 -325 0 -325 0 0 -45z"/>
<path d="M3104 2750 c-45 -10 -87 -43 -109 -84 l-20 -36 -367 0 -368 0 0 -45
0 -45 368 0 367 -1 23 -37 c36 -57 68 -76 137 -80 50 -3 66 0 95 20 53 36 80
83 80 140 0 57 -17 96 -60 131 -26 22 -92 49 -110 46 -3 -1 -19 -4 -36 -9z
m97 -109 c17 -18 29 -40 29 -56 0 -16 -12 -38 -29 -56 -38 -38 -74 -38 -112 0
-31 32 -36 55 -18 95 24 51 87 59 130 17z"/>
<path d="M1650 2585 l0 -45 235 0 235 0 0 45 0 45 -235 0 -235 0 0 -45z"/>
<path d="M1800 2375 l0 -45 40 0 c40 0 43 3 43 45 0 42 -3 45 -43 45 l-40 0 0
-45z"/>
<path d="M1977 2414 c-4 -4 -7 -25 -7 -46 l0 -38 448 0 447 0 50 -24 c28 -14
137 -96 244 -183 l194 -158 1 -67 c1 -74 18 -106 76 -145 48 -33 123 -32 177
3 66 44 93 110 73 183 -29 108 -157 163 -247 106 -20 -14 -34 -4 -240 160
-128 103 -236 182 -263 192 -40 15 -97 18 -495 21 -248 1 -454 0 -458 -4z
m1598 -459 c51 -50 14 -139 -58 -139 -66 0 -103 63 -73 122 18 34 28 40 74 41
22 1 41 -7 57 -24z"/>
<path d="M1970 2150 l0 -40 109 0 c100 0 112 -2 135 -22 25 -22 26 -28 29
-158 4 -152 13 -181 72 -226 29 -22 49 -28 110 -32 66 -4 74 -7 79 -27 8 -33
69 -82 116 -95 100 -27 210 56 210 159 0 52 -30 111 -73 142 -33 24 -50 29
-97 29 -47 0 -64 -5 -97 -29 -22 -16 -45 -43 -53 -60 -12 -30 -14 -31 -75 -31
-94 0 -99 8 -105 185 -6 158 -12 176 -80 223 -30 20 -45 22 -156 22 l-124 0 0
-40z m753 -381 c27 -33 23 -93 -9 -118 -75 -59 -169 26 -123 110 23 43 99 47
132 8z"/>
<path d="M2420 2150 l0 -40 195 0 c209 0 243 -6 293 -53 50 -46 52 -59 52
-330 l0 -254 -37 -24 c-56 -36 -83 -83 -83 -141 0 -113 94 -190 205 -166 150
32 178 240 42 313 l-36 19 -3 265 c-3 301 -6 310 -87 384 -70 63 -88 67 -327
67 l-214 0 0 -40z m641 -789 c42 -43 37 -101 -12 -126 -39 -21 -64 -19 -95 9
-39 33 -39 89 0 122 37 32 71 30 107 -5z"/>
</g>
</svg>
